<mxfile host="app.diagrams.net" agent="Mozilla/5.0 (Windows NT 10.0; Win64; x64) AppleWebKit/537.36 (KHTML, like Gecko) Chrome/131.0.0.0 Safari/537.36" version="26.0.16">
  <diagram name="Page-1" id="B-06-Jz7Hxi-Nbonn7gl">
    <mxGraphModel dx="1501" dy="639" grid="1" gridSize="10" guides="1" tooltips="1" connect="1" arrows="1" fold="1" page="1" pageScale="1" pageWidth="1169" pageHeight="827" math="0" shadow="0">
      <root>
        <mxCell id="0" />
        <mxCell id="1" parent="0" />
        <mxCell id="TcFfkABvey_W52rLI10m-1" value="&lt;font face=&quot;Lucida Console&quot;&gt;BookReservation&lt;/font&gt;" style="swimlane;fontStyle=1;align=center;verticalAlign=top;childLayout=stackLayout;horizontal=1;startSize=26;horizontalStack=0;resizeParent=1;resizeParentMax=0;resizeLast=0;collapsible=1;marginBottom=0;whiteSpace=wrap;html=1;spacingLeft=4;spacingRight=4;fontFamily=Helvetica;fontSize=12;fontColor=default;fillColor=none;gradientColor=none;" vertex="1" parent="1">
          <mxGeometry x="319" y="123" width="380" height="160" as="geometry" />
        </mxCell>
        <mxCell id="TcFfkABvey_W52rLI10m-2" value="&lt;font face=&quot;Lucida Console&quot;&gt;- bookBarcode: String&lt;/font&gt;&lt;div&gt;&lt;font face=&quot;Lucida Console&quot;&gt;- memberId : String&lt;/font&gt;&lt;/div&gt;&lt;div&gt;&lt;font face=&quot;Lucida Console&quot;&gt;&lt;br&gt;&lt;/font&gt;&lt;/div&gt;&lt;div&gt;&lt;font face=&quot;Lucida Console&quot;&gt;- creationDate : Date&lt;/font&gt;&lt;/div&gt;&lt;div&gt;&lt;font face=&quot;Lucida Console&quot;&gt;- status : ReservationStatus&lt;/font&gt;&lt;/div&gt;&lt;div&gt;&lt;font face=&quot;Lucida Console&quot;&gt;&lt;br&gt;&lt;/font&gt;&lt;/div&gt;&lt;div&gt;&lt;font face=&quot;Lucida Console&quot;&gt;&lt;br&gt;&lt;/font&gt;&lt;/div&gt;" style="text;strokeColor=none;fillColor=none;align=left;verticalAlign=top;spacingLeft=4;spacingRight=4;overflow=hidden;rotatable=0;points=[[0,0.5],[1,0.5]];portConstraint=eastwest;whiteSpace=wrap;html=1;fontFamily=Helvetica;fontSize=12;fontColor=default;" vertex="1" parent="TcFfkABvey_W52rLI10m-1">
          <mxGeometry y="26" width="380" height="84" as="geometry" />
        </mxCell>
        <mxCell id="TcFfkABvey_W52rLI10m-3" value="" style="line;strokeWidth=1;fillColor=none;align=left;verticalAlign=middle;spacingTop=-1;spacingLeft=3;spacingRight=3;rotatable=0;labelPosition=right;points=[];portConstraint=eastwest;strokeColor=inherit;fontFamily=Helvetica;fontSize=12;fontColor=default;" vertex="1" parent="TcFfkABvey_W52rLI10m-1">
          <mxGeometry y="110" width="380" height="8" as="geometry" />
        </mxCell>
        <mxCell id="TcFfkABvey_W52rLI10m-4" value="&lt;font face=&quot;Lucida Console&quot;&gt;+ &lt;u&gt;fetchReservationDetails(String)&lt;/u&gt;: BookReservation&lt;/font&gt;&lt;div&gt;&lt;font face=&quot;Lucida Console&quot;&gt;+ updateStatus(ReservationStatus) : void&lt;/font&gt;&lt;/div&gt;" style="text;strokeColor=none;fillColor=none;align=left;verticalAlign=top;spacingLeft=4;spacingRight=4;overflow=hidden;rotatable=0;points=[[0,0.5],[1,0.5]];portConstraint=eastwest;whiteSpace=wrap;html=1;fontFamily=Helvetica;fontSize=12;fontColor=default;" vertex="1" parent="TcFfkABvey_W52rLI10m-1">
          <mxGeometry y="118" width="380" height="42" as="geometry" />
        </mxCell>
        <mxCell id="TcFfkABvey_W52rLI10m-5" value="&lt;font face=&quot;Lucida Console&quot;&gt;ReservationStatus&lt;/font&gt;" style="swimlane;fontStyle=1;align=center;verticalAlign=top;childLayout=stackLayout;horizontal=1;startSize=26;horizontalStack=0;resizeParent=1;resizeParentMax=0;resizeLast=0;collapsible=1;marginBottom=0;whiteSpace=wrap;html=1;spacingLeft=4;spacingRight=4;fontFamily=Helvetica;fontSize=12;fontColor=default;fillColor=none;gradientColor=none;" vertex="1" parent="1">
          <mxGeometry x="60" y="170" width="160" height="100" as="geometry" />
        </mxCell>
        <mxCell id="TcFfkABvey_W52rLI10m-6" value="&lt;font face=&quot;Lucida Console&quot;&gt;WAITING,&lt;/font&gt;&lt;div&gt;&lt;font face=&quot;Lucida Console&quot;&gt;PENDING,&lt;/font&gt;&lt;/div&gt;&lt;div&gt;&lt;font face=&quot;Lucida Console&quot;&gt;CANCELLED,&lt;/font&gt;&lt;/div&gt;&lt;div&gt;&lt;font face=&quot;Lucida Console&quot;&gt;NONE&lt;/font&gt;&lt;/div&gt;&lt;div&gt;&lt;font face=&quot;Lucida Console&quot;&gt;&lt;br&gt;&lt;/font&gt;&lt;/div&gt;" style="text;strokeColor=none;fillColor=none;align=left;verticalAlign=top;spacingLeft=4;spacingRight=4;overflow=hidden;rotatable=0;points=[[0,0.5],[1,0.5]];portConstraint=eastwest;whiteSpace=wrap;html=1;fontFamily=Helvetica;fontSize=12;fontColor=default;" vertex="1" parent="TcFfkABvey_W52rLI10m-5">
          <mxGeometry y="26" width="160" height="74" as="geometry" />
        </mxCell>
        <mxCell id="TcFfkABvey_W52rLI10m-7" value="" style="endArrow=diamondThin;endFill=0;endSize=24;html=1;rounded=0;entryX=0.001;entryY=0.882;entryDx=0;entryDy=0;entryPerimeter=0;exitX=1;exitY=0.5;exitDx=0;exitDy=0;" edge="1" parent="1" source="TcFfkABvey_W52rLI10m-6" target="TcFfkABvey_W52rLI10m-2">
          <mxGeometry width="160" relative="1" as="geometry">
            <mxPoint x="200" y="280" as="sourcePoint" />
            <mxPoint x="360" y="280" as="targetPoint" />
          </mxGeometry>
        </mxCell>
        <mxCell id="TcFfkABvey_W52rLI10m-8" value="&lt;font face=&quot;Lucida Console&quot;&gt;BookLending&lt;/font&gt;" style="swimlane;fontStyle=1;align=center;verticalAlign=top;childLayout=stackLayout;horizontal=1;startSize=26;horizontalStack=0;resizeParent=1;resizeParentMax=0;resizeLast=0;collapsible=1;marginBottom=0;whiteSpace=wrap;html=1;spacingLeft=4;spacingRight=4;fontFamily=Helvetica;fontSize=12;fontColor=default;fillColor=none;gradientColor=none;" vertex="1" parent="1">
          <mxGeometry x="344" y="350" width="330" height="180" as="geometry" />
        </mxCell>
        <mxCell id="TcFfkABvey_W52rLI10m-9" value="&lt;font face=&quot;Lucida Console&quot;&gt;- bookBarcode: String&lt;/font&gt;&lt;div&gt;&lt;font face=&quot;Lucida Console&quot;&gt;- memberId : String&lt;/font&gt;&lt;/div&gt;&lt;div&gt;&lt;font face=&quot;Lucida Console&quot;&gt;&lt;br&gt;&lt;/font&gt;&lt;/div&gt;&lt;div&gt;&lt;font face=&quot;Lucida Console&quot;&gt;- creationDate : Date&lt;/font&gt;&lt;/div&gt;&lt;div&gt;&lt;font face=&quot;Lucida Console&quot;&gt;- dueDate : Date&lt;/font&gt;&lt;/div&gt;&lt;div&gt;&lt;font face=&quot;Lucida Console&quot;&gt;- returnDate : Date&lt;/font&gt;&lt;/div&gt;" style="text;strokeColor=none;fillColor=none;align=left;verticalAlign=top;spacingLeft=4;spacingRight=4;overflow=hidden;rotatable=0;points=[[0,0.5],[1,0.5]];portConstraint=eastwest;whiteSpace=wrap;html=1;fontFamily=Helvetica;fontSize=12;fontColor=default;" vertex="1" parent="TcFfkABvey_W52rLI10m-8">
          <mxGeometry y="26" width="330" height="104" as="geometry" />
        </mxCell>
        <mxCell id="TcFfkABvey_W52rLI10m-10" value="" style="line;strokeWidth=1;fillColor=none;align=left;verticalAlign=middle;spacingTop=-1;spacingLeft=3;spacingRight=3;rotatable=0;labelPosition=right;points=[];portConstraint=eastwest;strokeColor=inherit;fontFamily=Helvetica;fontSize=12;fontColor=default;" vertex="1" parent="TcFfkABvey_W52rLI10m-8">
          <mxGeometry y="130" width="330" height="8" as="geometry" />
        </mxCell>
        <mxCell id="TcFfkABvey_W52rLI10m-11" value="&lt;font face=&quot;Lucida Console&quot;&gt;+ &lt;u&gt;lendBook(String, String)&lt;/u&gt;&amp;nbsp;: void&lt;/font&gt;&lt;div&gt;&lt;font face=&quot;Lucida Console&quot;&gt;+ fetchLendingDetails(String) : BookLending&lt;/font&gt;&lt;/div&gt;" style="text;strokeColor=none;fillColor=none;align=left;verticalAlign=top;spacingLeft=4;spacingRight=4;overflow=hidden;rotatable=0;points=[[0,0.5],[1,0.5]];portConstraint=eastwest;whiteSpace=wrap;html=1;fontFamily=Helvetica;fontSize=12;fontColor=default;" vertex="1" parent="TcFfkABvey_W52rLI10m-8">
          <mxGeometry y="138" width="330" height="42" as="geometry" />
        </mxCell>
        <mxCell id="TcFfkABvey_W52rLI10m-12" value="&lt;font face=&quot;Lucida Console&quot;&gt;Fine&lt;/font&gt;" style="swimlane;fontStyle=1;align=center;verticalAlign=top;childLayout=stackLayout;horizontal=1;startSize=26;horizontalStack=0;resizeParent=1;resizeParentMax=0;resizeLast=0;collapsible=1;marginBottom=0;whiteSpace=wrap;html=1;spacingLeft=4;spacingRight=4;fontFamily=Helvetica;fontSize=12;fontColor=default;fillColor=none;gradientColor=none;" vertex="1" parent="1">
          <mxGeometry x="373" y="602" width="270" height="124" as="geometry" />
        </mxCell>
        <mxCell id="TcFfkABvey_W52rLI10m-13" value="&lt;font face=&quot;Lucida Console&quot;&gt;- bookBarcode: double&lt;/font&gt;&lt;div&gt;&lt;font face=&quot;Lucida Console&quot;&gt;- memberId : String&lt;/font&gt;&lt;/div&gt;&lt;div&gt;&lt;font face=&quot;Lucida Console&quot;&gt;&lt;br&gt;&lt;/font&gt;&lt;/div&gt;&lt;div&gt;&lt;font face=&quot;Lucida Console&quot;&gt;- creationDate : Date&lt;/font&gt;&lt;/div&gt;" style="text;strokeColor=none;fillColor=none;align=left;verticalAlign=top;spacingLeft=4;spacingRight=4;overflow=hidden;rotatable=0;points=[[0,0.5],[1,0.5]];portConstraint=eastwest;whiteSpace=wrap;html=1;fontFamily=Helvetica;fontSize=12;fontColor=default;" vertex="1" parent="TcFfkABvey_W52rLI10m-12">
          <mxGeometry y="26" width="270" height="64" as="geometry" />
        </mxCell>
        <mxCell id="TcFfkABvey_W52rLI10m-14" value="" style="line;strokeWidth=1;fillColor=none;align=left;verticalAlign=middle;spacingTop=-1;spacingLeft=3;spacingRight=3;rotatable=0;labelPosition=right;points=[];portConstraint=eastwest;strokeColor=inherit;fontFamily=Helvetica;fontSize=12;fontColor=default;" vertex="1" parent="TcFfkABvey_W52rLI10m-12">
          <mxGeometry y="90" width="270" height="8" as="geometry" />
        </mxCell>
        <mxCell id="TcFfkABvey_W52rLI10m-15" value="&lt;font face=&quot;Lucida Console&quot;&gt;+ &lt;u&gt;collectFine(String, long)&lt;/u&gt;: void&lt;/font&gt;" style="text;strokeColor=none;fillColor=none;align=left;verticalAlign=top;spacingLeft=4;spacingRight=4;overflow=hidden;rotatable=0;points=[[0,0.5],[1,0.5]];portConstraint=eastwest;whiteSpace=wrap;html=1;fontFamily=Helvetica;fontSize=12;fontColor=default;" vertex="1" parent="TcFfkABvey_W52rLI10m-12">
          <mxGeometry y="98" width="270" height="26" as="geometry" />
        </mxCell>
        <mxCell id="TcFfkABvey_W52rLI10m-16" value="" style="endArrow=open;endFill=1;endSize=12;html=1;rounded=0;entryX=0.493;entryY=1.021;entryDx=0;entryDy=0;entryPerimeter=0;" edge="1" parent="1" source="TcFfkABvey_W52rLI10m-12" target="TcFfkABvey_W52rLI10m-11">
          <mxGeometry width="160" relative="1" as="geometry">
            <mxPoint x="350" y="420" as="sourcePoint" />
            <mxPoint x="510" y="420" as="targetPoint" />
          </mxGeometry>
        </mxCell>
      </root>
    </mxGraphModel>
  </diagram>
</mxfile>
